<svg width="256" height="256" viewBox="0 0 256 256" fill="none" xmlns="http://www.w3.org/2000/svg">
<rect width="256" height="256" rx="128" fill="black"/>
<path d="M210.631 106C210.631 125.478 203.053 144.192 189.501 158.182C175.949 172.173 157.486 180.342 138.018 180.962C118.55 181.582 98.1005 173.6 83.6858 160.5C69.2711 147.4 62.0221 130.211 60.7828 110.772C59.5434 91.3339 55.0734 223.324 67.7078 208.5C80.3421 193.676 109.09 33.1994 128.479 31.342C147.868 29.4846 167.219 35.2431 182.438 47.3991C197.657 59.5552 207.55 77.1552 210.023 96.4754L210.631 106Z" fill="url(#paint0_linear_7_2)"/>
<defs>
<linearGradient id="paint0_linear_7_2" x1="134.815" y1="31" x2="134.815" y2="209.664" gradientUnits="userSpaceOnUse">
<stop stop-color="#133930"/>
<stop offset="0.3125" stop-color="#3CFFD0"/>
</linearGradient>
</defs>
</svg>
