<svg width="703" height="175" viewBox="0 0 703 175" fill="none" xmlns="http://www.w3.org/2000/svg">
<mask id="path-1-outside-1_20_69" maskUnits="userSpaceOnUse" x="148" y="37" width="462" height="49" fill="black">
<rect fill="white" x="148" y="37" width="462" height="49"/>
<path d="M202.088 55.2C202.088 58.144 201.363 60.832 199.912 63.264C198.504 65.6533 196.584 67.5733 194.152 69.024C191.72 70.4747 189.032 71.2 186.088 71.2H160.36V64.864H186.088C187.88 64.864 189.501 64.4373 190.952 63.584C192.403 62.688 193.555 61.5147 194.408 60.064C195.261 58.5707 195.688 56.9493 195.688 55.2C195.688 53.408 195.261 51.7867 194.408 50.336C193.555 48.8853 192.403 47.7333 190.952 46.88C189.501 46.0267 187.88 45.6 186.088 45.6H156.776V84H150.376V39.2H186.088C189.032 39.2 191.72 39.9253 194.152 41.376C196.584 42.784 198.504 44.704 199.912 47.136C201.363 49.568 202.088 52.256 202.088 55.2ZM260.776 84H252.136L238.696 71.2H219.048V64.864H244.776C246.568 64.864 248.189 64.4373 249.64 63.584C251.09 62.688 252.242 61.5147 253.096 60.064C253.949 58.5707 254.376 56.9493 254.376 55.2C254.376 53.408 253.949 51.7867 253.096 50.336C252.242 48.8853 251.09 47.7333 249.64 46.88C248.189 46.0267 246.568 45.6 244.776 45.6H215.464V84H209.064V39.2H244.776C247.72 39.2 250.408 39.9253 252.84 41.376C255.272 42.784 257.192 44.704 258.6 47.136C260.05 49.568 260.776 52.256 260.776 55.2C260.776 57.8453 260.178 60.2987 258.984 62.56C257.832 64.8213 256.232 66.6987 254.184 68.192C252.178 69.6427 249.896 70.5813 247.336 71.008L260.776 84ZM322.443 61.6C322.443 64.7147 321.952 67.6373 320.971 70.368C319.989 73.056 318.581 75.424 316.747 77.472C314.955 79.52 312.8 81.12 310.283 82.272C307.765 83.424 304.971 84 301.899 84H286.987C283.872 84 281.056 83.424 278.539 82.272C276.021 81.12 273.845 79.52 272.01 77.472C270.219 75.424 268.832 73.056 267.851 70.368C266.869 67.6373 266.379 64.7147 266.379 61.6C266.379 58.528 266.869 55.648 267.851 52.96C268.832 50.2293 270.219 47.84 272.01 45.792C273.845 43.7013 276.021 42.08 278.539 40.928C281.056 39.776 283.872 39.2 286.987 39.2H301.899C304.971 39.2 307.765 39.776 310.283 40.928C312.8 42.08 314.955 43.7013 316.747 45.792C318.581 47.84 319.989 50.2293 320.971 52.96C321.952 55.648 322.443 58.528 322.443 61.6ZM316.043 61.6C316.043 58.656 315.467 55.968 314.315 53.536C313.205 51.104 311.584 49.184 309.451 47.776C307.36 46.3253 304.843 45.6 301.899 45.6H286.987C284.043 45.6 281.504 46.3253 279.371 47.776C277.28 49.184 275.659 51.104 274.507 53.536C273.355 55.968 272.779 58.656 272.779 61.6C272.779 64.544 273.355 67.232 274.507 69.664C275.659 72.0533 277.28 73.9733 279.371 75.424C281.504 76.8747 284.043 77.6 286.987 77.6H301.899C304.843 77.6 307.36 76.8747 309.451 75.424C311.584 73.9733 313.205 72.0533 314.315 69.664C315.467 67.232 316.043 64.544 316.043 61.6ZM377.538 84H348.674C345.559 84 342.743 83.424 340.226 82.272C337.709 81.12 335.533 79.52 333.698 77.472C331.906 75.424 330.519 73.056 329.538 70.368C328.557 67.6373 328.066 64.7147 328.066 61.6C328.066 58.528 328.557 55.648 329.538 52.96C330.519 50.2293 331.906 47.84 333.698 45.792C335.533 43.7013 337.709 42.08 340.226 40.928C342.743 39.776 345.559 39.2 348.674 39.2H377.538V45.6H348.674C345.73 45.6 343.191 46.3253 341.058 47.776C338.967 49.184 337.346 51.104 336.194 53.536C335.042 55.968 334.466 58.656 334.466 61.6C334.466 64.544 335.042 67.232 336.194 69.664C337.346 72.0533 338.967 73.9733 341.058 75.424C343.191 76.8747 345.73 77.6 348.674 77.6H371.138V64.8H344.002V58.4H377.538V84ZM438.776 84H430.136L416.696 71.2H397.048V64.864H422.776C424.568 64.864 426.189 64.4373 427.64 63.584C429.09 62.688 430.242 61.5147 431.096 60.064C431.949 58.5707 432.376 56.9493 432.376 55.2C432.376 53.408 431.949 51.7867 431.096 50.336C430.242 48.8853 429.09 47.7333 427.64 46.88C426.189 46.0267 424.568 45.6 422.776 45.6H393.464V84H387.064V39.2H422.776C425.72 39.2 428.408 39.9253 430.84 41.376C433.272 42.784 435.192 44.704 436.6 47.136C438.05 49.568 438.776 52.256 438.776 55.2C438.776 57.8453 438.178 60.2987 436.984 62.56C435.832 64.8213 434.232 66.6987 432.184 68.192C430.178 69.6427 427.896 70.5813 425.336 71.008L438.776 84ZM493.275 84H446.939V39.2H493.275V45.6H453.339V77.6H493.275V84ZM487.835 64.8H456.539V58.4H487.835V64.8ZM550.661 71.2C550.661 73.5467 550.085 75.7013 548.933 77.664C547.781 79.584 546.245 81.12 544.325 82.272C542.405 83.424 540.25 84 537.861 84H498.949V77.6H537.861C539.653 77.6 541.167 76.9813 542.405 75.744C543.642 74.464 544.261 72.9493 544.261 71.2C544.261 69.4507 543.642 67.9573 542.405 66.72C541.167 65.44 539.653 64.8 537.861 64.8H511.749C509.402 64.8 507.247 64.224 505.285 63.072C503.365 61.92 501.829 60.384 500.677 58.464C499.525 56.5013 498.949 54.3467 498.949 52C498.949 49.6533 499.525 47.52 500.677 45.6C501.829 43.6373 503.365 42.08 505.285 40.928C507.247 39.776 509.402 39.2 511.749 39.2H547.461V45.6H511.749C509.999 45.6 508.485 46.24 507.205 47.52C505.967 48.7573 505.349 50.2507 505.349 52C505.349 53.7493 505.967 55.264 507.205 56.544C508.485 57.7813 509.999 58.4 511.749 58.4H537.861C540.25 58.4 542.405 58.976 544.325 60.128C546.245 61.28 547.781 62.8373 548.933 64.8C550.085 66.72 550.661 68.8533 550.661 71.2ZM607.598 71.2C607.598 73.5467 607.022 75.7013 605.87 77.664C604.718 79.584 603.182 81.12 601.262 82.272C599.342 83.424 597.187 84 594.798 84H555.886V77.6H594.798C596.59 77.6 598.105 76.9813 599.342 75.744C600.579 74.464 601.198 72.9493 601.198 71.2C601.198 69.4507 600.579 67.9573 599.342 66.72C598.105 65.44 596.59 64.8 594.798 64.8H568.686C566.339 64.8 564.185 64.224 562.222 63.072C560.302 61.92 558.766 60.384 557.614 58.464C556.462 56.5013 555.886 54.3467 555.886 52C555.886 49.6533 556.462 47.52 557.614 45.6C558.766 43.6373 560.302 42.08 562.222 40.928C564.185 39.776 566.339 39.2 568.686 39.2H604.398V45.6H568.686C566.937 45.6 565.422 46.24 564.142 47.52C562.905 48.7573 562.286 50.2507 562.286 52C562.286 53.7493 562.905 55.264 564.142 56.544C565.422 57.7813 566.937 58.4 568.686 58.4H594.798C597.187 58.4 599.342 58.976 601.262 60.128C603.182 61.28 604.718 62.8373 605.87 64.8C607.022 66.72 607.598 68.8533 607.598 71.2Z"/>
</mask>
<path d="M202.088 55.2C202.088 58.144 201.363 60.832 199.912 63.264C198.504 65.6533 196.584 67.5733 194.152 69.024C191.72 70.4747 189.032 71.2 186.088 71.2H160.36V64.864H186.088C187.88 64.864 189.501 64.4373 190.952 63.584C192.403 62.688 193.555 61.5147 194.408 60.064C195.261 58.5707 195.688 56.9493 195.688 55.2C195.688 53.408 195.261 51.7867 194.408 50.336C193.555 48.8853 192.403 47.7333 190.952 46.88C189.501 46.0267 187.88 45.6 186.088 45.6H156.776V84H150.376V39.2H186.088C189.032 39.2 191.72 39.9253 194.152 41.376C196.584 42.784 198.504 44.704 199.912 47.136C201.363 49.568 202.088 52.256 202.088 55.2ZM260.776 84H252.136L238.696 71.2H219.048V64.864H244.776C246.568 64.864 248.189 64.4373 249.64 63.584C251.09 62.688 252.242 61.5147 253.096 60.064C253.949 58.5707 254.376 56.9493 254.376 55.2C254.376 53.408 253.949 51.7867 253.096 50.336C252.242 48.8853 251.09 47.7333 249.64 46.88C248.189 46.0267 246.568 45.6 244.776 45.6H215.464V84H209.064V39.2H244.776C247.72 39.2 250.408 39.9253 252.84 41.376C255.272 42.784 257.192 44.704 258.6 47.136C260.05 49.568 260.776 52.256 260.776 55.2C260.776 57.8453 260.178 60.2987 258.984 62.56C257.832 64.8213 256.232 66.6987 254.184 68.192C252.178 69.6427 249.896 70.5813 247.336 71.008L260.776 84ZM322.443 61.6C322.443 64.7147 321.952 67.6373 320.971 70.368C319.989 73.056 318.581 75.424 316.747 77.472C314.955 79.52 312.8 81.12 310.283 82.272C307.765 83.424 304.971 84 301.899 84H286.987C283.872 84 281.056 83.424 278.539 82.272C276.021 81.12 273.845 79.52 272.01 77.472C270.219 75.424 268.832 73.056 267.851 70.368C266.869 67.6373 266.379 64.7147 266.379 61.6C266.379 58.528 266.869 55.648 267.851 52.96C268.832 50.2293 270.219 47.84 272.01 45.792C273.845 43.7013 276.021 42.08 278.539 40.928C281.056 39.776 283.872 39.2 286.987 39.2H301.899C304.971 39.2 307.765 39.776 310.283 40.928C312.8 42.08 314.955 43.7013 316.747 45.792C318.581 47.84 319.989 50.2293 320.971 52.96C321.952 55.648 322.443 58.528 322.443 61.6ZM316.043 61.6C316.043 58.656 315.467 55.968 314.315 53.536C313.205 51.104 311.584 49.184 309.451 47.776C307.36 46.3253 304.843 45.6 301.899 45.6H286.987C284.043 45.6 281.504 46.3253 279.371 47.776C277.28 49.184 275.659 51.104 274.507 53.536C273.355 55.968 272.779 58.656 272.779 61.6C272.779 64.544 273.355 67.232 274.507 69.664C275.659 72.0533 277.28 73.9733 279.371 75.424C281.504 76.8747 284.043 77.6 286.987 77.6H301.899C304.843 77.6 307.36 76.8747 309.451 75.424C311.584 73.9733 313.205 72.0533 314.315 69.664C315.467 67.232 316.043 64.544 316.043 61.6ZM377.538 84H348.674C345.559 84 342.743 83.424 340.226 82.272C337.709 81.12 335.533 79.52 333.698 77.472C331.906 75.424 330.519 73.056 329.538 70.368C328.557 67.6373 328.066 64.7147 328.066 61.6C328.066 58.528 328.557 55.648 329.538 52.96C330.519 50.2293 331.906 47.84 333.698 45.792C335.533 43.7013 337.709 42.08 340.226 40.928C342.743 39.776 345.559 39.2 348.674 39.2H377.538V45.6H348.674C345.73 45.6 343.191 46.3253 341.058 47.776C338.967 49.184 337.346 51.104 336.194 53.536C335.042 55.968 334.466 58.656 334.466 61.6C334.466 64.544 335.042 67.232 336.194 69.664C337.346 72.0533 338.967 73.9733 341.058 75.424C343.191 76.8747 345.73 77.6 348.674 77.6H371.138V64.8H344.002V58.4H377.538V84ZM438.776 84H430.136L416.696 71.2H397.048V64.864H422.776C424.568 64.864 426.189 64.4373 427.64 63.584C429.09 62.688 430.242 61.5147 431.096 60.064C431.949 58.5707 432.376 56.9493 432.376 55.2C432.376 53.408 431.949 51.7867 431.096 50.336C430.242 48.8853 429.09 47.7333 427.64 46.88C426.189 46.0267 424.568 45.6 422.776 45.6H393.464V84H387.064V39.2H422.776C425.72 39.2 428.408 39.9253 430.84 41.376C433.272 42.784 435.192 44.704 436.6 47.136C438.05 49.568 438.776 52.256 438.776 55.2C438.776 57.8453 438.178 60.2987 436.984 62.56C435.832 64.8213 434.232 66.6987 432.184 68.192C430.178 69.6427 427.896 70.5813 425.336 71.008L438.776 84ZM493.275 84H446.939V39.2H493.275V45.6H453.339V77.6H493.275V84ZM487.835 64.8H456.539V58.4H487.835V64.8ZM550.661 71.2C550.661 73.5467 550.085 75.7013 548.933 77.664C547.781 79.584 546.245 81.12 544.325 82.272C542.405 83.424 540.25 84 537.861 84H498.949V77.6H537.861C539.653 77.6 541.167 76.9813 542.405 75.744C543.642 74.464 544.261 72.9493 544.261 71.2C544.261 69.4507 543.642 67.9573 542.405 66.72C541.167 65.44 539.653 64.8 537.861 64.8H511.749C509.402 64.8 507.247 64.224 505.285 63.072C503.365 61.92 501.829 60.384 500.677 58.464C499.525 56.5013 498.949 54.3467 498.949 52C498.949 49.6533 499.525 47.52 500.677 45.6C501.829 43.6373 503.365 42.08 505.285 40.928C507.247 39.776 509.402 39.2 511.749 39.2H547.461V45.6H511.749C509.999 45.6 508.485 46.24 507.205 47.52C505.967 48.7573 505.349 50.2507 505.349 52C505.349 53.7493 505.967 55.264 507.205 56.544C508.485 57.7813 509.999 58.4 511.749 58.4H537.861C540.25 58.4 542.405 58.976 544.325 60.128C546.245 61.28 547.781 62.8373 548.933 64.8C550.085 66.72 550.661 68.8533 550.661 71.2ZM607.598 71.2C607.598 73.5467 607.022 75.7013 605.87 77.664C604.718 79.584 603.182 81.12 601.262 82.272C599.342 83.424 597.187 84 594.798 84H555.886V77.6H594.798C596.59 77.6 598.105 76.9813 599.342 75.744C600.579 74.464 601.198 72.9493 601.198 71.2C601.198 69.4507 600.579 67.9573 599.342 66.72C598.105 65.44 596.59 64.8 594.798 64.8H568.686C566.339 64.8 564.185 64.224 562.222 63.072C560.302 61.92 558.766 60.384 557.614 58.464C556.462 56.5013 555.886 54.3467 555.886 52C555.886 49.6533 556.462 47.52 557.614 45.6C558.766 43.6373 560.302 42.08 562.222 40.928C564.185 39.776 566.339 39.2 568.686 39.2H604.398V45.6H568.686C566.937 45.6 565.422 46.24 564.142 47.52C562.905 48.7573 562.286 50.2507 562.286 52C562.286 53.7493 562.905 55.264 564.142 56.544C565.422 57.7813 566.937 58.4 568.686 58.4H594.798C597.187 58.4 599.342 58.976 601.262 60.128C603.182 61.28 604.718 62.8373 605.87 64.8C607.022 66.72 607.598 68.8533 607.598 71.2Z" fill="#3CFFD0"/>
<path d="M199.912 63.264L198.194 62.2394L198.189 62.2486L199.912 63.264ZM194.152 69.024L193.127 67.3064L193.127 67.3064L194.152 69.024ZM160.36 71.2H158.36V73.2H160.36V71.2ZM160.36 64.864V62.864H158.36V64.864H160.36ZM190.952 63.584L191.966 65.3079L191.985 65.2969L192.003 65.2856L190.952 63.584ZM194.408 60.064L196.132 61.078L196.138 61.0672L196.144 61.0563L194.408 60.064ZM194.408 50.336L192.684 51.35L192.684 51.35L194.408 50.336ZM190.952 46.88L191.966 45.1561L191.966 45.1561L190.952 46.88ZM156.776 45.6V43.6H154.776V45.6H156.776ZM156.776 84V86H158.776V84H156.776ZM150.376 84H148.376V86H150.376V84ZM150.376 39.2V37.2H148.376V39.2H150.376ZM194.152 41.376L193.127 43.0936L193.139 43.1003L193.15 43.1069L194.152 41.376ZM199.912 47.136L198.181 48.1381L198.188 48.1494L198.194 48.1606L199.912 47.136ZM202.088 55.2H200.088C200.088 57.7982 199.453 60.1298 198.194 62.2394L199.912 63.264L201.63 64.2886C203.273 61.5342 204.088 58.4898 204.088 55.2H202.088ZM199.912 63.264L198.189 62.2486C196.955 64.3427 195.278 66.0237 193.127 67.3064L194.152 69.024L195.177 70.7416C197.89 69.1229 200.053 66.964 201.635 64.2794L199.912 63.264ZM194.152 69.024L193.127 67.3064C191.018 68.5647 188.686 69.2 186.088 69.2V71.2V73.2C189.378 73.2 192.422 72.3846 195.177 70.7416L194.152 69.024ZM186.088 71.2V69.2H160.36V71.2V73.2H186.088V71.2ZM160.36 71.2H162.36V64.864H160.36H158.36V71.2H160.36ZM160.36 64.864V66.864H186.088V64.864V62.864H160.36V64.864ZM186.088 64.864V66.864C188.213 66.864 190.188 66.3538 191.966 65.3079L190.952 63.584L189.938 61.8601C188.815 62.5209 187.547 62.864 186.088 62.864V64.864ZM190.952 63.584L192.003 65.2856C193.727 64.2209 195.111 62.813 196.132 61.078L194.408 60.064L192.684 59.05C191.998 60.2163 191.079 61.1551 189.901 61.8824L190.952 63.584ZM194.408 60.064L196.144 61.0563C197.174 59.2554 197.688 57.2912 197.688 55.2H195.688H193.688C193.688 56.6075 193.349 57.8859 192.672 59.0717L194.408 60.064ZM195.688 55.2H197.688C197.688 53.0754 197.178 51.1 196.132 49.322L194.408 50.336L192.684 51.35C193.345 52.4733 193.688 53.7406 193.688 55.2H195.688ZM194.408 50.336L196.132 49.322C195.106 47.5782 193.71 46.1819 191.966 45.1561L190.952 46.88L189.938 48.6039C191.096 49.2848 192.003 50.1925 192.684 51.35L194.408 50.336ZM190.952 46.88L191.966 45.1561C190.188 44.1102 188.213 43.6 186.088 43.6V45.6V47.6C187.547 47.6 188.815 47.9431 189.938 48.6039L190.952 46.88ZM186.088 45.6V43.6H156.776V45.6V47.6H186.088V45.6ZM156.776 45.6H154.776V84H156.776H158.776V45.6H156.776ZM156.776 84V82H150.376V84V86H156.776V84ZM150.376 84H152.376V39.2H150.376H148.376V84H150.376ZM150.376 39.2V41.2H186.088V39.2V37.2H150.376V39.2ZM186.088 39.2V41.2C188.686 41.2 191.018 41.8353 193.127 43.0936L194.152 41.376L195.177 39.6584C192.422 38.0154 189.378 37.2 186.088 37.2V39.2ZM194.152 41.376L193.15 43.1069C195.28 44.3398 196.948 46.0085 198.181 48.1381L199.912 47.136L201.643 46.1339C200.06 43.3995 197.888 41.2282 195.154 39.6451L194.152 41.376ZM199.912 47.136L198.194 48.1606C199.453 50.2702 200.088 52.6018 200.088 55.2H202.088H204.088C204.088 51.9102 203.273 48.8658 201.63 46.1114L199.912 47.136ZM260.776 84V86H265.722L262.166 82.562L260.776 84ZM252.136 84L250.756 85.4483L251.336 86H252.136V84ZM238.696 71.2L240.075 69.7517L239.496 69.2H238.696V71.2ZM219.048 71.2H217.048V73.2H219.048V71.2ZM219.048 64.864V62.864H217.048V64.864H219.048ZM249.64 63.584L250.654 65.3079L250.672 65.2969L250.69 65.2856L249.64 63.584ZM253.096 60.064L254.819 61.078L254.826 61.0672L254.832 61.0563L253.096 60.064ZM253.096 50.336L251.372 51.35L251.372 51.35L253.096 50.336ZM249.64 46.88L250.654 45.1561L250.654 45.1561L249.64 46.88ZM215.464 45.6V43.6H213.464V45.6H215.464ZM215.464 84V86H217.464V84H215.464ZM209.064 84H207.064V86H209.064V84ZM209.064 39.2V37.2H207.064V39.2H209.064ZM252.84 41.376L251.815 43.0936L251.826 43.1003L251.837 43.1069L252.84 41.376ZM258.6 47.136L256.869 48.1381L256.875 48.1494L256.882 48.1606L258.6 47.136ZM258.984 62.56L257.215 61.6258L257.208 61.6389L257.201 61.6521L258.984 62.56ZM254.184 68.192L255.356 69.8125L255.362 69.808L254.184 68.192ZM247.336 71.008L247.007 69.0352L243.092 69.6877L245.945 72.446L247.336 71.008ZM260.776 84V82H252.136V84V86H260.776V84ZM252.136 84L253.515 82.5517L240.075 69.7517L238.696 71.2L237.316 72.6483L250.756 85.4483L252.136 84ZM238.696 71.2V69.2H219.048V71.2V73.2H238.696V71.2ZM219.048 71.2H221.048V64.864H219.048H217.048V71.2H219.048ZM219.048 64.864V66.864H244.776V64.864V62.864H219.048V64.864ZM244.776 64.864V66.864C246.9 66.864 248.876 66.3538 250.654 65.3079L249.64 63.584L248.625 61.8601C247.502 62.5209 246.235 62.864 244.776 62.864V64.864ZM249.64 63.584L250.69 65.2856C252.414 64.2209 253.799 62.813 254.819 61.078L253.096 60.064L251.372 59.05C250.686 60.2163 249.766 61.1551 248.589 61.8824L249.64 63.584ZM253.096 60.064L254.832 61.0563C255.861 59.2554 256.376 57.2912 256.376 55.2H254.376H252.376C252.376 56.6075 252.037 57.8859 251.359 59.0717L253.096 60.064ZM254.376 55.2H256.376C256.376 53.0754 255.865 51.1 254.819 49.322L253.096 50.336L251.372 51.35C252.032 52.4733 252.376 53.7406 252.376 55.2H254.376ZM253.096 50.336L254.819 49.322C253.794 47.5782 252.397 46.1819 250.654 45.1561L249.64 46.88L248.625 48.6039C249.783 49.2848 250.691 50.1925 251.372 51.35L253.096 50.336ZM249.64 46.88L250.654 45.1561C248.876 44.1102 246.9 43.6 244.776 43.6V45.6V47.6C246.235 47.6 247.502 47.9431 248.625 48.6039L249.64 46.88ZM244.776 45.6V43.6H215.464V45.6V47.6H244.776V45.6ZM215.464 45.6H213.464V84H215.464H217.464V45.6H215.464ZM215.464 84V82H209.064V84V86H215.464V84ZM209.064 84H211.064V39.2H209.064H207.064V84H209.064ZM209.064 39.2V41.2H244.776V39.2V37.2H209.064V39.2ZM244.776 39.2V41.2C247.374 41.2 249.705 41.8353 251.815 43.0936L252.84 41.376L253.864 39.6584C251.11 38.0154 248.065 37.2 244.776 37.2V39.2ZM252.84 41.376L251.837 43.1069C253.967 44.3398 255.636 46.0085 256.869 48.1381L258.6 47.136L260.33 46.1339C258.747 43.3995 256.576 41.2282 253.842 39.6451L252.84 41.376ZM258.6 47.136L256.882 48.1606C258.14 50.2702 258.776 52.6018 258.776 55.2H260.776H262.776C262.776 51.9102 261.96 48.8658 260.317 46.1114L258.6 47.136ZM260.776 55.2H258.776C258.776 57.5313 258.252 59.6624 257.215 61.6258L258.984 62.56L260.752 63.4942C262.104 60.9349 262.776 58.1594 262.776 55.2H260.776ZM258.984 62.56L257.201 61.6521C256.192 63.6336 254.799 65.2682 253.005 66.576L254.184 68.192L255.362 69.808C257.664 68.1291 259.471 66.0091 260.766 63.4679L258.984 62.56ZM254.184 68.192L253.011 66.5716C251.268 67.8324 249.277 68.6568 247.007 69.0352L247.336 71.008L247.664 72.9808C250.514 72.5059 253.088 71.4529 255.356 69.8124L254.184 68.192ZM247.336 71.008L245.945 72.446L259.385 85.438L260.776 84L262.166 82.562L248.726 69.57L247.336 71.008ZM320.971 70.368L322.849 71.0539L322.853 71.0444L320.971 70.368ZM316.747 77.472L315.257 76.1375L315.249 76.1462L315.241 76.155L316.747 77.472ZM272.01 77.472L270.505 78.789L270.513 78.7978L270.521 78.8065L272.01 77.472ZM267.851 70.368L265.968 71.0444L265.972 71.0539L267.851 70.368ZM267.851 52.96L269.729 53.6459L269.733 53.6364L267.851 52.96ZM272.01 45.792L270.507 44.4728L270.505 44.475L272.01 45.792ZM316.747 45.792L315.228 47.0936L315.242 47.1102L315.257 47.1265L316.747 45.792ZM320.971 52.96L319.088 53.6364L319.092 53.6459L320.971 52.96ZM314.315 53.536L312.495 54.366L312.501 54.3791L312.507 54.3922L314.315 53.536ZM309.451 47.776L308.31 49.4192L308.329 49.4324L308.349 49.4452L309.451 47.776ZM279.371 47.776L280.488 49.4349L280.495 49.4299L279.371 47.776ZM274.507 53.536L276.314 54.3922L276.314 54.3922L274.507 53.536ZM274.507 69.664L272.699 70.5202L272.705 70.5326L274.507 69.664ZM279.371 75.424L278.23 77.0672L278.238 77.0726L278.246 77.0779L279.371 75.424ZM309.451 75.424L308.326 73.7701L308.318 73.7754L308.31 73.7808L309.451 75.424ZM314.315 69.664L312.507 68.8078L312.504 68.8148L312.5 68.8218L314.315 69.664ZM322.443 61.6H320.443C320.443 64.5011 319.986 67.1934 319.088 69.6916L320.971 70.368L322.853 71.0444C323.918 68.0813 324.443 64.9282 324.443 61.6H322.443ZM320.971 70.368L319.092 69.6821C318.194 72.141 316.915 74.2867 315.257 76.1375L316.747 77.472L318.236 78.8065C320.247 76.5613 321.784 73.971 322.849 71.0539L320.971 70.368ZM316.747 77.472L315.241 76.155C313.639 77.9863 311.715 79.417 309.45 80.4534L310.283 82.272L311.115 84.0906C313.885 82.823 316.27 81.0537 318.252 78.789L316.747 77.472ZM310.283 82.272L309.45 80.4534C307.221 81.4733 304.715 82 301.899 82V84V86C305.226 86 308.309 85.3747 311.115 84.0906L310.283 82.272ZM301.899 84V82H286.987V84V86H301.899V84ZM286.987 84V82C284.123 82 281.596 81.4717 279.371 80.4534L278.539 82.272L277.706 84.0906C280.516 85.3763 283.621 86 286.987 86V84ZM278.539 82.272L279.371 80.4534C277.102 79.415 275.15 77.9792 273.5 76.1375L272.01 77.472L270.521 78.8065C272.54 81.0608 274.941 82.825 277.706 84.0906L278.539 82.272ZM272.01 77.472L273.516 76.155C271.894 74.302 270.63 72.1506 269.729 69.6821L267.851 70.368L265.972 71.0539C267.033 73.9614 268.543 76.546 270.505 78.789L272.01 77.472ZM267.851 70.368L269.733 69.6916C268.835 67.1934 268.379 64.5011 268.379 61.6H266.379H264.379C264.379 64.9282 264.903 68.0813 265.968 71.0444L267.851 70.368ZM266.379 61.6H268.379C268.379 58.7447 268.834 56.0984 269.729 53.6459L267.851 52.96L265.972 52.2741C264.904 55.1976 264.379 58.3113 264.379 61.6H266.379ZM267.851 52.96L269.733 53.6364C270.635 51.1252 271.899 48.9567 273.516 47.109L272.01 45.792L270.505 44.475C268.538 46.7233 267.029 49.3335 265.968 52.2836L267.851 52.96ZM272.01 45.792L273.514 47.1112C275.163 45.2314 277.111 43.7807 279.371 42.7466L278.539 40.928L277.706 39.1094C274.931 40.3793 272.527 42.1713 270.507 44.4728L272.01 45.792ZM278.539 40.928L279.371 42.7466C281.596 41.7283 284.123 41.2 286.987 41.2V39.2V37.2C283.621 37.2 280.516 37.8237 277.706 39.1094L278.539 40.928ZM286.987 39.2V41.2H301.899V39.2V37.2H286.987V39.2ZM301.899 39.2V41.2C304.715 41.2 307.221 41.7267 309.45 42.7466L310.283 40.928L311.115 39.1094C308.309 37.8253 305.226 37.2 301.899 37.2V39.2ZM310.283 40.928L309.45 42.7466C311.706 43.7787 313.626 45.2242 315.228 47.0936L316.747 45.792L318.265 44.4904C316.283 42.1785 313.894 40.3813 311.115 39.1094L310.283 40.928ZM316.747 45.792L315.257 47.1265C316.91 48.972 318.189 51.1347 319.088 53.6364L320.971 52.96L322.853 52.2836C321.789 49.3239 320.252 46.708 318.236 44.4575L316.747 45.792ZM320.971 52.96L319.092 53.6459C319.987 56.0984 320.443 58.7447 320.443 61.6H322.443H324.443C324.443 58.3113 323.917 55.1976 322.849 52.2741L320.971 52.96ZM316.043 61.6H318.043C318.043 58.3881 317.412 55.4038 316.122 52.6798L314.315 53.536L312.507 54.3922C313.521 56.5322 314.043 58.9239 314.043 61.6H316.043ZM314.315 53.536L316.134 52.706C314.876 49.9488 313.014 47.7313 310.552 46.1068L309.451 47.776L308.349 49.4452C310.154 50.6367 311.534 52.2592 312.495 54.366L314.315 53.536ZM309.451 47.776L310.591 46.1328C308.115 44.4149 305.184 43.6 301.899 43.6V45.6V47.6C304.501 47.6 306.605 48.2358 308.31 49.4192L309.451 47.776ZM301.899 45.6V43.6H286.987V45.6V47.6H301.899V45.6ZM286.987 45.6V43.6C283.7 43.6 280.756 44.4152 278.246 46.1221L279.371 47.776L280.495 49.4299C282.252 48.2355 284.385 47.6 286.987 47.6V45.6ZM279.371 47.776L278.253 46.1171C275.844 47.7395 273.994 49.9459 272.699 52.6798L274.507 53.536L276.314 54.3922C277.323 52.2621 278.715 50.6285 280.488 49.4349L279.371 47.776ZM274.507 53.536L272.699 52.6798C271.409 55.4038 270.779 58.3881 270.779 61.6H272.779H274.779C274.779 58.9239 275.3 56.5322 276.314 54.3922L274.507 53.536ZM272.779 61.6H270.779C270.779 64.8119 271.409 67.7962 272.699 70.5202L274.507 69.664L276.314 68.8078C275.3 66.6678 274.779 64.2761 274.779 61.6H272.779ZM274.507 69.664L272.705 70.5326C274 73.2192 275.844 75.4112 278.23 77.0672L279.371 75.424L280.511 73.7808C278.716 72.5354 277.317 70.8875 276.308 68.7954L274.507 69.664ZM279.371 75.424L278.246 77.0779C280.756 78.7848 283.7 79.6 286.987 79.6V77.6V75.6C284.385 75.6 282.252 74.9645 280.495 73.7701L279.371 75.424ZM286.987 77.6V79.6H301.899V77.6V75.6H286.987V77.6ZM301.899 77.6V79.6C305.184 79.6 308.115 78.7851 310.591 77.0672L309.451 75.424L308.31 73.7808C306.605 74.9642 304.501 75.6 301.899 75.6V77.6ZM309.451 75.424L310.575 77.0779C313.014 75.4195 314.87 73.2162 316.129 70.5062L314.315 69.664L312.5 68.8218C311.54 70.8905 310.154 72.5272 308.326 73.7701L309.451 75.424ZM314.315 69.664L316.122 70.5202C317.412 67.7962 318.043 64.8119 318.043 61.6H316.043H314.043C314.043 64.2761 313.521 66.6678 312.507 68.8078L314.315 69.664ZM377.538 84V86H379.538V84H377.538ZM333.698 77.472L332.193 78.789L332.201 78.7978L332.208 78.8065L333.698 77.472ZM329.538 70.368L327.656 71.0444L327.659 71.0539L329.538 70.368ZM329.538 52.96L331.417 53.6459L331.42 53.6364L329.538 52.96ZM333.698 45.792L332.195 44.4728L332.193 44.475L333.698 45.792ZM377.538 39.2H379.538V37.2H377.538V39.2ZM377.538 45.6V47.6H379.538V45.6H377.538ZM341.058 47.776L342.175 49.4349L342.183 49.4299L341.058 47.776ZM336.194 53.536L338.001 54.3922L338.001 54.3922L336.194 53.536ZM336.194 69.664L334.386 70.5202L334.392 70.5326L336.194 69.664ZM341.058 75.424L339.918 77.0672L339.926 77.0726L339.933 77.0779L341.058 75.424ZM371.138 77.6V79.6H373.138V77.6H371.138ZM371.138 64.8H373.138V62.8H371.138V64.8ZM344.002 64.8H342.002V66.8H344.002V64.8ZM344.002 58.4V56.4H342.002V58.4H344.002ZM377.538 58.4H379.538V56.4H377.538V58.4ZM377.538 84V82H348.674V84V86H377.538V84ZM348.674 84V82C345.811 82 343.284 81.4717 341.058 80.4534L340.226 82.272L339.394 84.0906C342.203 85.3763 345.308 86 348.674 86V84ZM340.226 82.272L341.058 80.4534C338.789 79.415 336.838 77.9792 335.188 76.1375L333.698 77.472L332.208 78.8065C334.228 81.0608 336.628 82.825 339.394 84.0906L340.226 82.272ZM333.698 77.472L335.203 76.155C333.582 74.302 332.318 72.1506 331.417 69.6821L329.538 70.368L327.659 71.0539C328.721 73.9614 330.23 76.546 332.193 78.789L333.698 77.472ZM329.538 70.368L331.42 69.6916C330.522 67.1934 330.066 64.5011 330.066 61.6H328.066H326.066C326.066 64.9282 326.591 68.0813 327.656 71.0444L329.538 70.368ZM328.066 61.6H330.066C330.066 58.7447 330.521 56.0984 331.417 53.6459L329.538 52.96L327.659 52.2741C326.592 55.1976 326.066 58.3113 326.066 61.6H328.066ZM329.538 52.96L331.42 53.6364C332.323 51.1252 333.586 48.9567 335.203 47.109L333.698 45.792L332.193 44.475C330.226 46.7233 328.716 49.3335 327.656 52.2836L329.538 52.96ZM333.698 45.792L335.201 47.1112C336.851 45.2314 338.799 43.7807 341.058 42.7466L340.226 40.928L339.394 39.1094C336.619 40.3793 334.214 42.1713 332.195 44.4728L333.698 45.792ZM340.226 40.928L341.058 42.7466C343.284 41.7283 345.811 41.2 348.674 41.2V39.2V37.2C345.308 37.2 342.203 37.8237 339.394 39.1094L340.226 40.928ZM348.674 39.2V41.2H377.538V39.2V37.2H348.674V39.2ZM377.538 39.2H375.538V45.6H377.538H379.538V39.2H377.538ZM377.538 45.6V43.6H348.674V45.6V47.6H377.538V45.6ZM348.674 45.6V43.6C345.387 43.6 342.444 44.4152 339.933 46.1221L341.058 47.776L342.183 49.4299C343.939 48.2355 346.073 47.6 348.674 47.6V45.6ZM341.058 47.776L339.941 46.1171C337.532 47.7395 335.682 49.9459 334.387 52.6798L336.194 53.536L338.001 54.3922C339.01 52.2621 340.403 50.6285 342.175 49.4349L341.058 47.776ZM336.194 53.536L334.387 52.6798C333.096 55.4038 332.466 58.3881 332.466 61.6H334.466H336.466C336.466 58.9239 336.988 56.5322 338.001 54.3922L336.194 53.536ZM334.466 61.6H332.466C332.466 64.8119 333.096 67.7962 334.387 70.5202L336.194 69.664L338.001 68.8078C336.988 66.6678 336.466 64.2761 336.466 61.6H334.466ZM336.194 69.664L334.392 70.5326C335.688 73.2192 337.531 75.4112 339.918 77.0672L341.058 75.424L342.198 73.7808C340.403 72.5354 339.004 70.8875 337.996 68.7954L336.194 69.664ZM341.058 75.424L339.933 77.0779C342.444 78.7848 345.387 79.6 348.674 79.6V77.6V75.6C346.073 75.6 343.939 74.9645 342.183 73.7701L341.058 75.424ZM348.674 77.6V79.6H371.138V77.6V75.6H348.674V77.6ZM371.138 77.6H373.138V64.8H371.138H369.138V77.6H371.138ZM371.138 64.8V62.8H344.002V64.8V66.8H371.138V64.8ZM344.002 64.8H346.002V58.4H344.002H342.002V64.8H344.002ZM344.002 58.4V60.4H377.538V58.4V56.4H344.002V58.4ZM377.538 58.4H375.538V84H377.538H379.538V58.4H377.538ZM438.776 84V86H443.722L440.166 82.562L438.776 84ZM430.136 84L428.756 85.4483L429.336 86H430.136V84ZM416.696 71.2L418.075 69.7517L417.496 69.2H416.696V71.2ZM397.048 71.2H395.048V73.2H397.048V71.2ZM397.048 64.864V62.864H395.048V64.864H397.048ZM427.64 63.584L428.654 65.3079L428.672 65.2969L428.69 65.2856L427.64 63.584ZM431.096 60.064L432.819 61.078L432.826 61.0672L432.832 61.0563L431.096 60.064ZM431.096 50.336L429.372 51.35L429.372 51.35L431.096 50.336ZM427.64 46.88L428.654 45.1561L428.654 45.1561L427.64 46.88ZM393.464 45.6V43.6H391.464V45.6H393.464ZM393.464 84V86H395.464V84H393.464ZM387.064 84H385.064V86H387.064V84ZM387.064 39.2V37.2H385.064V39.2H387.064ZM430.84 41.376L429.815 43.0936L429.826 43.1003L429.837 43.1069L430.84 41.376ZM436.6 47.136L434.869 48.1381L434.875 48.1494L434.882 48.1606L436.6 47.136ZM436.984 62.56L435.215 61.6258L435.208 61.6389L435.201 61.6521L436.984 62.56ZM432.184 68.192L433.356 69.8125L433.362 69.808L432.184 68.192ZM425.336 71.008L425.007 69.0352L421.092 69.6877L423.945 72.446L425.336 71.008ZM438.776 84V82H430.136V84V86H438.776V84ZM430.136 84L431.515 82.5517L418.075 69.7517L416.696 71.2L415.316 72.6483L428.756 85.4483L430.136 84ZM416.696 71.2V69.2H397.048V71.2V73.2H416.696V71.2ZM397.048 71.2H399.048V64.864H397.048H395.048V71.2H397.048ZM397.048 64.864V66.864H422.776V64.864V62.864H397.048V64.864ZM422.776 64.864V66.864C424.9 66.864 426.876 66.3538 428.654 65.3079L427.64 63.584L426.625 61.8601C425.502 62.5209 424.235 62.864 422.776 62.864V64.864ZM427.64 63.584L428.69 65.2856C430.414 64.2209 431.799 62.813 432.819 61.078L431.096 60.064L429.372 59.05C428.686 60.2163 427.766 61.1551 426.589 61.8824L427.64 63.584ZM431.096 60.064L432.832 61.0563C433.861 59.2554 434.376 57.2912 434.376 55.2H432.376H430.376C430.376 56.6075 430.037 57.8859 429.359 59.0717L431.096 60.064ZM432.376 55.2H434.376C434.376 53.0754 433.865 51.1 432.819 49.322L431.096 50.336L429.372 51.35C430.032 52.4733 430.376 53.7406 430.376 55.2H432.376ZM431.096 50.336L432.819 49.322C431.794 47.5782 430.397 46.1819 428.654 45.1561L427.64 46.88L426.625 48.6039C427.783 49.2848 428.691 50.1925 429.372 51.35L431.096 50.336ZM427.64 46.88L428.654 45.1561C426.876 44.1102 424.9 43.6 422.776 43.6V45.6V47.6C424.235 47.6 425.502 47.9431 426.625 48.6039L427.64 46.88ZM422.776 45.6V43.6H393.464V45.6V47.6H422.776V45.6ZM393.464 45.6H391.464V84H393.464H395.464V45.6H393.464ZM393.464 84V82H387.064V84V86H393.464V84ZM387.064 84H389.064V39.2H387.064H385.064V84H387.064ZM387.064 39.2V41.2H422.776V39.2V37.2H387.064V39.2ZM422.776 39.2V41.2C425.374 41.2 427.705 41.8353 429.815 43.0936L430.84 41.376L431.864 39.6584C429.11 38.0154 426.065 37.2 422.776 37.2V39.2ZM430.84 41.376L429.837 43.1069C431.967 44.3398 433.636 46.0085 434.869 48.1381L436.6 47.136L438.33 46.1339C436.747 43.3995 434.576 41.2282 431.842 39.6451L430.84 41.376ZM436.6 47.136L434.882 48.1606C436.14 50.2702 436.776 52.6018 436.776 55.2H438.776H440.776C440.776 51.9102 439.96 48.8658 438.317 46.1114L436.6 47.136ZM438.776 55.2H436.776C436.776 57.5313 436.252 59.6624 435.215 61.6258L436.984 62.56L438.752 63.4942C440.104 60.9349 440.776 58.1594 440.776 55.2H438.776ZM436.984 62.56L435.201 61.6521C434.192 63.6336 432.799 65.2682 431.005 66.576L432.184 68.192L433.362 69.808C435.664 68.1291 437.471 66.0091 438.766 63.4679L436.984 62.56ZM432.184 68.192L431.011 66.5716C429.268 67.8324 427.277 68.6568 425.007 69.0352L425.336 71.008L425.664 72.9808C428.514 72.5059 431.088 71.4529 433.356 69.8124L432.184 68.192ZM425.336 71.008L423.945 72.446L437.385 85.438L438.776 84L440.166 82.562L426.726 69.57L425.336 71.008ZM493.275 84V86H495.275V84H493.275ZM446.939 84H444.939V86H446.939V84ZM446.939 39.2V37.2H444.939V39.2H446.939ZM493.275 39.2H495.275V37.2H493.275V39.2ZM493.275 45.6V47.6H495.275V45.6H493.275ZM453.339 45.6V43.6H451.339V45.6H453.339ZM453.339 77.6H451.339V79.6H453.339V77.6ZM493.275 77.6H495.275V75.6H493.275V77.6ZM487.835 64.8V66.8H489.835V64.8H487.835ZM456.539 64.8H454.539V66.8H456.539V64.8ZM456.539 58.4V56.4H454.539V58.4H456.539ZM487.835 58.4H489.835V56.4H487.835V58.4ZM493.275 84V82H446.939V84V86H493.275V84ZM446.939 84H448.939V39.2H446.939H444.939V84H446.939ZM446.939 39.2V41.2H493.275V39.2V37.2H446.939V39.2ZM493.275 39.2H491.275V45.6H493.275H495.275V39.2H493.275ZM493.275 45.6V43.6H453.339V45.6V47.6H493.275V45.6ZM453.339 45.6H451.339V77.6H453.339H455.339V45.6H453.339ZM453.339 77.6V79.6H493.275V77.6V75.6H453.339V77.6ZM493.275 77.6H491.275V84H493.275H495.275V77.6H493.275ZM487.835 64.8V62.8H456.539V64.8V66.8H487.835V64.8ZM456.539 64.8H458.539V58.4H456.539H454.539V64.8H456.539ZM456.539 58.4V60.4H487.835V58.4V56.4H456.539V58.4ZM487.835 58.4H485.835V64.8H487.835H489.835V58.4H487.835ZM548.933 77.664L550.647 78.693L550.652 78.6847L550.657 78.6764L548.933 77.664ZM544.325 82.272L543.296 80.557L543.296 80.557L544.325 82.272ZM498.949 84H496.949V86H498.949V84ZM498.949 77.6V75.6H496.949V77.6H498.949ZM542.405 75.744L543.819 77.1582L543.831 77.1462L543.842 77.134L542.405 75.744ZM542.405 66.72L540.967 68.11L540.978 68.1222L540.99 68.1342L542.405 66.72ZM505.285 63.072L504.256 64.787L504.264 64.7919L504.272 64.7968L505.285 63.072ZM500.677 58.464L498.952 59.4764L498.957 59.4847L498.962 59.493L500.677 58.464ZM500.677 45.6L502.391 46.629L502.396 46.6207L502.401 46.6124L500.677 45.6ZM505.285 40.928L504.272 39.2032L504.264 39.208L504.256 39.213L505.285 40.928ZM547.461 39.2H549.461V37.2H547.461V39.2ZM547.461 45.6V47.6H549.461V45.6H547.461ZM507.205 47.52L505.79 46.1058L505.79 46.1058L507.205 47.52ZM507.205 56.544L505.767 57.934L505.79 57.9584L505.814 57.982L507.205 56.544ZM544.325 60.128L543.296 61.843L543.296 61.843L544.325 60.128ZM548.933 64.8L547.208 65.8124L547.213 65.8207L547.218 65.829L548.933 64.8ZM550.661 71.2H548.661C548.661 73.2023 548.174 75.0058 547.208 76.6516L548.933 77.664L550.657 78.6764C551.995 76.3969 552.661 73.891 552.661 71.2H550.661ZM548.933 77.664L547.218 76.635C546.234 78.2735 544.934 79.5739 543.296 80.557L544.325 82.272L545.353 83.987C547.555 82.6661 549.327 80.8945 550.647 78.693L548.933 77.664ZM544.325 82.272L543.296 80.557C541.707 81.5099 539.913 82 537.861 82V84V86C540.587 86 543.102 85.3381 545.353 83.987L544.325 82.272ZM537.861 84V82H498.949V84V86H537.861V84ZM498.949 84H500.949V77.6H498.949H496.949V84H498.949ZM498.949 77.6V79.6H537.861V77.6V75.6H498.949V77.6ZM537.861 77.6V79.6C540.169 79.6 542.196 78.7806 543.819 77.1582L542.405 75.744L540.99 74.3298C540.138 75.182 539.136 75.6 537.861 75.6V77.6ZM542.405 75.744L543.842 77.134C545.433 75.4885 546.261 73.4782 546.261 71.2H544.261H542.261C542.261 72.4205 541.85 73.4395 540.967 74.354L542.405 75.744ZM544.261 71.2H546.261C546.261 68.9201 545.431 66.9181 543.819 65.3058L542.405 66.72L540.99 68.1342C541.853 68.9966 542.261 69.9813 542.261 71.2H544.261ZM542.405 66.72L543.842 65.33C542.226 63.6572 540.191 62.8 537.861 62.8V64.8V66.8C539.114 66.8 540.109 67.2228 540.967 68.11L542.405 66.72ZM537.861 64.8V62.8H511.749V64.8V66.8H537.861V64.8ZM511.749 64.8V62.8C509.746 62.8 507.943 62.3132 506.297 61.3472L505.285 63.072L504.272 64.7968C506.552 66.1348 509.058 66.8 511.749 66.8V64.8ZM505.285 63.072L506.313 61.357C504.675 60.3739 503.375 59.0735 502.391 57.435L500.677 58.464L498.962 59.493C500.282 61.6945 502.054 63.4661 504.256 64.787L505.285 63.072ZM500.677 58.464L502.401 57.4516C501.435 55.8058 500.949 54.0023 500.949 52H498.949H496.949C496.949 54.691 497.614 57.1969 498.952 59.4764L500.677 58.464ZM498.949 52H500.949C500.949 49.9976 501.435 48.2229 502.391 46.629L500.677 45.6L498.962 44.571C497.614 46.8171 496.949 49.309 496.949 52H498.949ZM500.677 45.6L502.401 46.6124C503.387 44.9335 504.685 43.6198 506.313 42.643L505.285 40.928L504.256 39.213C502.044 40.5402 500.27 42.3411 498.952 44.5876L500.677 45.6ZM505.285 40.928L506.297 42.6528C507.943 41.6868 509.746 41.2 511.749 41.2V39.2V37.2C509.058 37.2 506.552 37.8652 504.272 39.2032L505.285 40.928ZM511.749 39.2V41.2H547.461V39.2V37.2H511.749V39.2ZM547.461 39.2H545.461V45.6H547.461H549.461V39.2H547.461ZM547.461 45.6V43.6H511.749V45.6V47.6H547.461V45.6ZM511.749 45.6V43.6C509.448 43.6 507.431 44.4653 505.79 46.1058L507.205 47.52L508.619 48.9342C509.538 48.0147 510.55 47.6 511.749 47.6V45.6ZM507.205 47.52L505.79 46.1058C504.178 47.7181 503.349 49.7201 503.349 52H505.349H507.349C507.349 50.7813 507.756 49.7966 508.619 48.9342L507.205 47.52ZM505.349 52H503.349C503.349 54.2782 504.176 56.2885 505.767 57.934L507.205 56.544L508.642 55.154C507.759 54.2395 507.349 53.2205 507.349 52H505.349ZM507.205 56.544L505.814 57.982C507.46 59.5727 509.47 60.4 511.749 60.4V58.4V56.4C510.528 56.4 509.509 55.99 508.595 55.106L507.205 56.544ZM511.749 58.4V60.4H537.861V58.4V56.4H511.749V58.4ZM537.861 58.4V60.4C539.913 60.4 541.707 60.8901 543.296 61.843L544.325 60.128L545.353 58.413C543.102 57.0619 540.587 56.4 537.861 56.4V58.4ZM544.325 60.128L543.296 61.843C544.924 62.8198 546.222 64.1335 547.208 65.8124L548.933 64.8L550.657 63.7876C549.339 61.5411 547.565 59.7402 545.353 58.413L544.325 60.128ZM548.933 64.8L547.218 65.829C548.174 67.4229 548.661 69.1976 548.661 71.2H550.661H552.661C552.661 68.509 551.995 66.0171 550.647 63.771L548.933 64.8ZM605.87 77.664L607.585 78.693L607.59 78.6847L607.595 78.6764L605.87 77.664ZM601.262 82.272L600.233 80.557L600.233 80.557L601.262 82.272ZM555.886 84H553.886V86H555.886V84ZM555.886 77.6V75.6H553.886V77.6H555.886ZM599.342 75.744L600.756 77.1582L600.768 77.1462L600.78 77.134L599.342 75.744ZM599.342 66.72L597.904 68.11L597.916 68.1222L597.928 68.1342L599.342 66.72ZM562.222 63.072L561.193 64.787L561.201 64.7919L561.21 64.7968L562.222 63.072ZM557.614 58.464L555.889 59.4764L555.894 59.4847L555.899 59.493L557.614 58.464ZM557.614 45.6L559.329 46.629L559.334 46.6207L559.339 46.6124L557.614 45.6ZM562.222 40.928L561.21 39.2032L561.201 39.208L561.193 39.213L562.222 40.928ZM604.398 39.2H606.398V37.2H604.398V39.2ZM604.398 45.6V47.6H606.398V45.6H604.398ZM564.142 47.52L562.728 46.1058L562.728 46.1058L564.142 47.52ZM564.142 56.544L562.704 57.934L562.728 57.9584L562.752 57.982L564.142 56.544ZM601.262 60.128L600.233 61.843L600.233 61.843L601.262 60.128ZM605.87 64.8L604.145 65.8124L604.15 65.8207L604.155 65.829L605.87 64.8ZM607.598 71.2H605.598C605.598 73.2023 605.111 75.0058 604.145 76.6516L605.87 77.664L607.595 78.6764C608.933 76.3969 609.598 73.891 609.598 71.2H607.598ZM605.87 77.664L604.155 76.635C603.172 78.2735 601.872 79.5739 600.233 80.557L601.262 82.272L602.291 83.987C604.492 82.6661 606.264 80.8945 607.585 78.693L605.87 77.664ZM601.262 82.272L600.233 80.557C598.645 81.5099 596.85 82 594.798 82V84V86C597.525 86 600.039 85.3381 602.291 83.987L601.262 82.272ZM594.798 84V82H555.886V84V86H594.798V84ZM555.886 84H557.886V77.6H555.886H553.886V84H555.886ZM555.886 77.6V79.6H594.798V77.6V75.6H555.886V77.6ZM594.798 77.6V79.6C597.106 79.6 599.134 78.7806 600.756 77.1582L599.342 75.744L597.928 74.3298C597.076 75.182 596.074 75.6 594.798 75.6V77.6ZM599.342 75.744L600.78 77.134C602.371 75.4885 603.198 73.4782 603.198 71.2H601.198H599.198C599.198 72.4205 598.788 73.4395 597.904 74.354L599.342 75.744ZM601.198 71.2H603.198C603.198 68.9201 602.368 66.9181 600.756 65.3058L599.342 66.72L597.928 68.1342C598.79 68.9966 599.198 69.9813 599.198 71.2H601.198ZM599.342 66.72L600.78 65.33C599.163 63.6572 597.128 62.8 594.798 62.8V64.8V66.8C596.052 66.8 597.046 67.2228 597.904 68.11L599.342 66.72ZM594.798 64.8V62.8H568.686V64.8V66.8H594.798V64.8ZM568.686 64.8V62.8C566.684 62.8 564.88 62.3132 563.234 61.3472L562.222 63.072L561.21 64.7968C563.489 66.1348 565.995 66.8 568.686 66.8V64.8ZM562.222 63.072L563.251 61.357C561.612 60.3739 560.312 59.0735 559.329 57.435L557.614 58.464L555.899 59.493C557.22 61.6945 558.992 63.4661 561.193 64.787L562.222 63.072ZM557.614 58.464L559.339 57.4516C558.373 55.8058 557.886 54.0023 557.886 52H555.886H553.886C553.886 54.691 554.551 57.1969 555.889 59.4764L557.614 58.464ZM555.886 52H557.886C557.886 49.9976 558.373 48.2229 559.329 46.629L557.614 45.6L555.899 44.571C554.551 46.8171 553.886 49.309 553.886 52H555.886ZM557.614 45.6L559.339 46.6124C560.324 44.9335 561.623 43.6198 563.251 42.643L562.222 40.928L561.193 39.213C558.981 40.5402 557.208 42.3411 555.889 44.5876L557.614 45.6ZM562.222 40.928L563.234 42.6528C564.88 41.6868 566.684 41.2 568.686 41.2V39.2V37.2C565.995 37.2 563.489 37.8652 561.21 39.2032L562.222 40.928ZM568.686 39.2V41.2H604.398V39.2V37.2H568.686V39.2ZM604.398 39.2H602.398V45.6H604.398H606.398V39.2H604.398ZM604.398 45.6V43.6H568.686V45.6V47.6H604.398V45.6ZM568.686 45.6V43.6C566.386 43.6 564.368 44.4653 562.728 46.1058L564.142 47.52L565.556 48.9342C566.476 48.0147 567.487 47.6 568.686 47.6V45.6ZM564.142 47.52L562.728 46.1058C561.116 47.7181 560.286 49.7201 560.286 52H562.286H564.286C564.286 50.7813 564.694 49.7966 565.556 48.9342L564.142 47.52ZM562.286 52H560.286C560.286 54.2782 561.113 56.2885 562.704 57.934L564.142 56.544L565.58 55.154C564.696 54.2395 564.286 53.2205 564.286 52H562.286ZM564.142 56.544L562.752 57.982C564.398 59.5727 566.408 60.4 568.686 60.4V58.4V56.4C567.466 56.4 566.446 55.99 565.532 55.106L564.142 56.544ZM568.686 58.4V60.4H594.798V58.4V56.4H568.686V58.4ZM594.798 58.4V60.4C596.85 60.4 598.645 60.8901 600.233 61.843L601.262 60.128L602.291 58.413C600.039 57.0619 597.525 56.4 594.798 56.4V58.4ZM601.262 60.128L600.233 61.843C601.861 62.8198 603.16 64.1335 604.145 65.8124L605.87 64.8L607.595 63.7876C606.276 61.5411 604.503 59.7402 602.291 58.413L601.262 60.128ZM605.87 64.8L604.155 65.829C605.111 67.4229 605.598 69.1976 605.598 71.2H607.598H609.598C609.598 68.509 608.933 66.0171 607.585 63.771L605.87 64.8Z" fill="#3CFFD0" mask="url(#path-1-outside-1_20_69)"/>
<mask id="path-3-outside-2_20_69" maskUnits="userSpaceOnUse" x="373" y="94.9143" width="235" height="30" fill="black">
<rect fill="white" x="373" y="94.9143" width="235" height="30"/>
<path d="M406.92 123.914H401.52L387.24 109.514L378.36 115.914V123.914H374.36V95.9143H378.36V111.514L400.32 95.9143H406.16L390.28 107.314L406.92 123.914ZM414.063 123.914H410.063V95.9143H414.063V123.914ZM424.766 123.914H420.766V95.9143H422.766C424.713 95.9143 426.82 96.2876 429.086 97.0343C431.38 97.781 433.673 98.8343 435.966 100.194C438.26 101.554 440.42 103.181 442.446 105.074C444.5 106.941 446.26 109.021 447.726 111.314V95.9143H451.726V123.914H447.726C447.726 121.461 447.22 119.114 446.206 116.874C445.22 114.608 443.9 112.528 442.246 110.634C440.593 108.714 438.753 107.021 436.726 105.554C434.726 104.061 432.686 102.848 430.606 101.914C428.526 100.954 426.58 100.341 424.766 100.074V123.914ZM487.782 123.914H469.742C467.795 123.914 466.035 123.554 464.462 122.834C462.888 122.114 461.528 121.114 460.382 119.834C459.262 118.554 458.395 117.074 457.782 115.394C457.168 113.688 456.862 111.861 456.862 109.914C456.862 107.994 457.168 106.194 457.782 104.514C458.395 102.808 459.262 101.314 460.382 100.034C461.528 98.7276 462.888 97.7143 464.462 96.9943C466.035 96.2743 467.795 95.9143 469.742 95.9143H487.782V99.9143H469.742C467.902 99.9143 466.315 100.368 464.982 101.274C463.675 102.154 462.662 103.354 461.942 104.874C461.222 106.394 460.862 108.074 460.862 109.914C460.862 111.754 461.222 113.434 461.942 114.954C462.662 116.448 463.675 117.648 464.982 118.554C466.315 119.461 467.902 119.914 469.742 119.914H483.782V111.914H466.822V107.914H487.782V123.914ZM526.735 109.914C526.735 111.861 526.428 113.688 525.815 115.394C525.202 117.074 524.322 118.554 523.175 119.834C522.055 121.114 520.695 122.114 519.095 122.834C517.522 123.554 515.775 123.914 513.855 123.914H499.735V119.914H513.855C515.695 119.914 517.282 119.461 518.615 118.554C519.948 117.648 520.962 116.448 521.655 114.954C522.375 113.434 522.735 111.754 522.735 109.914C522.735 108.074 522.375 106.394 521.655 104.874C520.962 103.354 519.948 102.154 518.615 101.274C517.282 100.368 515.695 99.9143 513.855 99.9143H497.735V123.914H493.735V95.9143H513.855C515.775 95.9143 517.522 96.2743 519.095 96.9943C520.695 97.7143 522.055 98.7276 523.175 100.034C524.322 101.314 525.202 102.808 525.815 104.514C526.428 106.194 526.735 107.994 526.735 109.914ZM565.3 109.914C565.3 111.861 564.993 113.688 564.38 115.394C563.767 117.074 562.887 118.554 561.74 119.834C560.62 121.114 559.273 122.114 557.7 122.834C556.127 123.554 554.38 123.914 552.46 123.914H543.14C541.193 123.914 539.433 123.554 537.86 122.834C536.287 122.114 534.927 121.114 533.78 119.834C532.66 118.554 531.793 117.074 531.18 115.394C530.567 113.688 530.26 111.861 530.26 109.914C530.26 107.994 530.567 106.194 531.18 104.514C531.793 102.808 532.66 101.314 533.78 100.034C534.927 98.7276 536.287 97.7143 537.86 96.9943C539.433 96.2743 541.193 95.9143 543.14 95.9143H552.46C554.38 95.9143 556.127 96.2743 557.7 96.9943C559.273 97.7143 560.62 98.7276 561.74 100.034C562.887 101.314 563.767 102.808 564.38 104.514C564.993 106.194 565.3 107.994 565.3 109.914ZM561.3 109.914C561.3 108.074 560.94 106.394 560.22 104.874C559.527 103.354 558.513 102.154 557.18 101.274C555.873 100.368 554.3 99.9143 552.46 99.9143H543.14C541.3 99.9143 539.713 100.368 538.38 101.274C537.073 102.154 536.06 103.354 535.34 104.874C534.62 106.394 534.26 108.074 534.26 109.914C534.26 111.754 534.62 113.434 535.34 114.954C536.06 116.448 537.073 117.648 538.38 118.554C539.713 119.461 541.3 119.914 543.14 119.914H552.46C554.3 119.914 555.873 119.461 557.18 118.554C558.513 117.648 559.527 116.448 560.22 114.954C560.94 113.434 561.3 111.754 561.3 109.914ZM590.575 123.914H586.575V109.914C586.575 108.074 586.121 106.394 585.215 104.874C584.335 103.354 583.135 102.154 581.615 101.274C580.095 100.368 578.415 99.9143 576.575 99.9143H574.415V123.914H570.415V95.9143H576.575C579.108 95.9143 581.428 96.541 583.535 97.7943C585.668 99.0476 587.348 100.688 588.575 102.714C589.801 100.688 591.468 99.0476 593.575 97.7943C595.708 96.541 598.041 95.9143 600.575 95.9143H606.735V123.914H602.735V99.9143H600.575C598.735 99.9143 597.055 100.368 595.535 101.274C594.041 102.154 592.841 103.354 591.935 104.874C591.028 106.394 590.575 108.074 590.575 109.914V123.914Z"/>
</mask>
<path d="M406.92 123.914H401.52L387.24 109.514L378.36 115.914V123.914H374.36V95.9143H378.36V111.514L400.32 95.9143H406.16L390.28 107.314L406.92 123.914ZM414.063 123.914H410.063V95.9143H414.063V123.914ZM424.766 123.914H420.766V95.9143H422.766C424.713 95.9143 426.82 96.2876 429.086 97.0343C431.38 97.781 433.673 98.8343 435.966 100.194C438.26 101.554 440.42 103.181 442.446 105.074C444.5 106.941 446.26 109.021 447.726 111.314V95.9143H451.726V123.914H447.726C447.726 121.461 447.22 119.114 446.206 116.874C445.22 114.608 443.9 112.528 442.246 110.634C440.593 108.714 438.753 107.021 436.726 105.554C434.726 104.061 432.686 102.848 430.606 101.914C428.526 100.954 426.58 100.341 424.766 100.074V123.914ZM487.782 123.914H469.742C467.795 123.914 466.035 123.554 464.462 122.834C462.888 122.114 461.528 121.114 460.382 119.834C459.262 118.554 458.395 117.074 457.782 115.394C457.168 113.688 456.862 111.861 456.862 109.914C456.862 107.994 457.168 106.194 457.782 104.514C458.395 102.808 459.262 101.314 460.382 100.034C461.528 98.7276 462.888 97.7143 464.462 96.9943C466.035 96.2743 467.795 95.9143 469.742 95.9143H487.782V99.9143H469.742C467.902 99.9143 466.315 100.368 464.982 101.274C463.675 102.154 462.662 103.354 461.942 104.874C461.222 106.394 460.862 108.074 460.862 109.914C460.862 111.754 461.222 113.434 461.942 114.954C462.662 116.448 463.675 117.648 464.982 118.554C466.315 119.461 467.902 119.914 469.742 119.914H483.782V111.914H466.822V107.914H487.782V123.914ZM526.735 109.914C526.735 111.861 526.428 113.688 525.815 115.394C525.202 117.074 524.322 118.554 523.175 119.834C522.055 121.114 520.695 122.114 519.095 122.834C517.522 123.554 515.775 123.914 513.855 123.914H499.735V119.914H513.855C515.695 119.914 517.282 119.461 518.615 118.554C519.948 117.648 520.962 116.448 521.655 114.954C522.375 113.434 522.735 111.754 522.735 109.914C522.735 108.074 522.375 106.394 521.655 104.874C520.962 103.354 519.948 102.154 518.615 101.274C517.282 100.368 515.695 99.9143 513.855 99.9143H497.735V123.914H493.735V95.9143H513.855C515.775 95.9143 517.522 96.2743 519.095 96.9943C520.695 97.7143 522.055 98.7276 523.175 100.034C524.322 101.314 525.202 102.808 525.815 104.514C526.428 106.194 526.735 107.994 526.735 109.914ZM565.3 109.914C565.3 111.861 564.993 113.688 564.38 115.394C563.767 117.074 562.887 118.554 561.74 119.834C560.62 121.114 559.273 122.114 557.7 122.834C556.127 123.554 554.38 123.914 552.46 123.914H543.14C541.193 123.914 539.433 123.554 537.86 122.834C536.287 122.114 534.927 121.114 533.78 119.834C532.66 118.554 531.793 117.074 531.18 115.394C530.567 113.688 530.26 111.861 530.26 109.914C530.26 107.994 530.567 106.194 531.18 104.514C531.793 102.808 532.66 101.314 533.78 100.034C534.927 98.7276 536.287 97.7143 537.86 96.9943C539.433 96.2743 541.193 95.9143 543.14 95.9143H552.46C554.38 95.9143 556.127 96.2743 557.7 96.9943C559.273 97.7143 560.62 98.7276 561.74 100.034C562.887 101.314 563.767 102.808 564.38 104.514C564.993 106.194 565.3 107.994 565.3 109.914ZM561.3 109.914C561.3 108.074 560.94 106.394 560.22 104.874C559.527 103.354 558.513 102.154 557.18 101.274C555.873 100.368 554.3 99.9143 552.46 99.9143H543.14C541.3 99.9143 539.713 100.368 538.38 101.274C537.073 102.154 536.06 103.354 535.34 104.874C534.62 106.394 534.26 108.074 534.26 109.914C534.26 111.754 534.62 113.434 535.34 114.954C536.06 116.448 537.073 117.648 538.38 118.554C539.713 119.461 541.3 119.914 543.14 119.914H552.46C554.3 119.914 555.873 119.461 557.18 118.554C558.513 117.648 559.527 116.448 560.22 114.954C560.94 113.434 561.3 111.754 561.3 109.914ZM590.575 123.914H586.575V109.914C586.575 108.074 586.121 106.394 585.215 104.874C584.335 103.354 583.135 102.154 581.615 101.274C580.095 100.368 578.415 99.9143 576.575 99.9143H574.415V123.914H570.415V95.9143H576.575C579.108 95.9143 581.428 96.541 583.535 97.7943C585.668 99.0476 587.348 100.688 588.575 102.714C589.801 100.688 591.468 99.0476 593.575 97.7943C595.708 96.541 598.041 95.9143 600.575 95.9143H606.735V123.914H602.735V99.9143H600.575C598.735 99.9143 597.055 100.368 595.535 101.274C594.041 102.154 592.841 103.354 591.935 104.874C591.028 106.394 590.575 108.074 590.575 109.914V123.914Z" fill="#3CFFD0"/>
<path d="M406.92 123.914V124.914H409.338L407.626 123.206L406.92 123.914ZM401.52 123.914L400.81 124.618L401.103 124.914H401.52V123.914ZM387.24 109.514L387.95 108.81L387.348 108.203L386.655 108.703L387.24 109.514ZM378.36 115.914L377.775 115.103L377.36 115.402V115.914H378.36ZM378.36 123.914V124.914H379.36V123.914H378.36ZM374.36 123.914H373.36V124.914H374.36V123.914ZM374.36 95.9143V94.9143H373.36V95.9143H374.36ZM378.36 95.9143H379.36V94.9143H378.36V95.9143ZM378.36 111.514H377.36V113.451L378.939 112.33L378.36 111.514ZM400.32 95.9143V94.9143H400.001L399.741 95.0991L400.32 95.9143ZM406.16 95.9143L406.743 96.7267L409.268 94.9143H406.16V95.9143ZM390.28 107.314L389.697 106.502L388.739 107.19L389.574 108.022L390.28 107.314ZM406.92 123.914V122.914H401.52V123.914V124.914H406.92V123.914ZM401.52 123.914L402.23 123.21L387.95 108.81L387.24 109.514L386.53 110.218L400.81 124.618L401.52 123.914ZM387.24 109.514L386.655 108.703L377.775 115.103L378.36 115.914L378.945 116.726L387.825 110.326L387.24 109.514ZM378.36 115.914H377.36V123.914H378.36H379.36V115.914H378.36ZM378.36 123.914V122.914H374.36V123.914V124.914H378.36V123.914ZM374.36 123.914H375.36V95.9143H374.36H373.36V123.914H374.36ZM374.36 95.9143V96.9143H378.36V95.9143V94.9143H374.36V95.9143ZM378.36 95.9143H377.36V111.514H378.36H379.36V95.9143H378.36ZM378.36 111.514L378.939 112.33L400.899 96.7295L400.32 95.9143L399.741 95.0991L377.781 110.699L378.36 111.514ZM400.32 95.9143V96.9143H406.16V95.9143V94.9143H400.32V95.9143ZM406.16 95.9143L405.577 95.102L389.697 106.502L390.28 107.314L390.863 108.127L406.743 96.7267L406.16 95.9143ZM390.28 107.314L389.574 108.022L406.214 124.622L406.92 123.914L407.626 123.206L390.986 106.606L390.28 107.314ZM414.063 123.914V124.914H415.063V123.914H414.063ZM410.063 123.914H409.063V124.914H410.063V123.914ZM410.063 95.9143V94.9143H409.063V95.9143H410.063ZM414.063 95.9143H415.063V94.9143H414.063V95.9143ZM414.063 123.914V122.914H410.063V123.914V124.914H414.063V123.914ZM410.063 123.914H411.063V95.9143H410.063H409.063V123.914H410.063ZM410.063 95.9143V96.9143H414.063V95.9143V94.9143H410.063V95.9143ZM414.063 95.9143H413.063V123.914H414.063H415.063V95.9143H414.063ZM424.766 123.914V124.914H425.766V123.914H424.766ZM420.766 123.914H419.766V124.914H420.766V123.914ZM420.766 95.9143V94.9143H419.766V95.9143H420.766ZM429.086 97.0343L428.773 97.9841L428.777 97.9852L429.086 97.0343ZM442.446 105.074L441.764 105.805L441.774 105.814L442.446 105.074ZM447.726 111.314L446.884 111.853L448.726 114.734V111.314H447.726ZM447.726 95.9143V94.9143H446.726V95.9143H447.726ZM451.726 95.9143H452.726V94.9143H451.726V95.9143ZM451.726 123.914V124.914H452.726V123.914H451.726ZM447.726 123.914H446.726V124.914H447.726V123.914ZM446.206 116.874L445.289 117.273L445.292 117.28L445.295 117.286L446.206 116.874ZM442.246 110.634L441.488 111.287L441.493 111.292L442.246 110.634ZM436.726 105.554L436.128 106.356L436.134 106.36L436.14 106.364L436.726 105.554ZM430.606 101.914L430.187 102.822L430.197 102.827L430.606 101.914ZM424.766 100.074L424.912 99.0849L423.766 98.9165V100.074H424.766ZM424.766 123.914V122.914H420.766V123.914V124.914H424.766V123.914ZM420.766 123.914H421.766V95.9143H420.766H419.766V123.914H420.766ZM420.766 95.9143V96.9143H422.766V95.9143V94.9143H420.766V95.9143ZM422.766 95.9143V96.9143C424.586 96.9143 426.586 97.2635 428.773 97.9841L429.086 97.0343L429.399 96.0845C427.053 95.3118 424.84 94.9143 422.766 94.9143V95.9143ZM429.086 97.0343L428.777 97.9852C430.993 98.7068 433.22 99.7281 435.456 101.054L435.966 100.194L436.476 99.3342C434.126 97.9405 431.766 96.8551 429.396 96.0834L429.086 97.0343ZM435.966 100.194L435.456 101.054C437.685 102.376 439.788 103.959 441.764 105.805L442.446 105.074L443.129 104.344C441.052 102.403 438.834 100.732 436.476 99.3342L435.966 100.194ZM442.446 105.074L441.774 105.814C443.763 107.623 445.466 109.635 446.884 111.853L447.726 111.314L448.569 110.776C447.054 108.407 445.236 106.259 443.119 104.334L442.446 105.074ZM447.726 111.314H448.726V95.9143H447.726H446.726V111.314H447.726ZM447.726 95.9143V96.9143H451.726V95.9143V94.9143H447.726V95.9143ZM451.726 95.9143H450.726V123.914H451.726H452.726V95.9143H451.726ZM451.726 123.914V122.914H447.726V123.914V124.914H451.726V123.914ZM447.726 123.914H448.726C448.726 121.319 448.189 118.831 447.117 116.462L446.206 116.874L445.295 117.286C446.25 119.397 446.726 121.603 446.726 123.914H447.726ZM446.206 116.874L447.123 116.475C446.095 114.113 444.719 111.946 442.999 109.977L442.246 110.634L441.493 111.292C443.08 113.109 444.344 115.102 445.289 117.273L446.206 116.874ZM442.246 110.634L443.004 109.982C441.301 108.004 439.403 106.257 437.313 104.744L436.726 105.554L436.14 106.364C438.103 107.785 439.885 109.425 441.488 111.287L442.246 110.634ZM436.726 105.554L437.325 104.753C435.271 103.22 433.168 101.968 431.016 101.002L430.606 101.914L430.197 102.827C432.204 103.727 434.181 104.902 436.128 106.356L436.726 105.554ZM430.606 101.914L431.025 101.006C428.879 100.016 426.84 99.3685 424.912 99.0849L424.766 100.074L424.621 101.064C426.319 101.313 428.173 101.893 430.187 102.822L430.606 101.914ZM424.766 100.074H423.766V123.914H424.766H425.766V100.074H424.766ZM487.782 123.914V124.914H488.782V123.914H487.782ZM460.382 119.834L459.629 120.493L459.637 120.502L460.382 119.834ZM457.782 115.394L456.84 115.733L456.842 115.737L457.782 115.394ZM457.782 104.514L458.721 104.857L458.723 104.853L457.782 104.514ZM460.382 100.034L459.63 99.3747L459.629 99.3758L460.382 100.034ZM487.782 95.9143H488.782V94.9143H487.782V95.9143ZM487.782 99.9143V100.914H488.782V99.9143H487.782ZM464.982 101.274L465.54 102.104L465.544 102.101L464.982 101.274ZM461.942 104.874L462.845 105.302L462.845 105.302L461.942 104.874ZM461.942 114.954L461.038 115.382L461.041 115.389L461.942 114.954ZM464.982 118.554L464.411 119.376L464.419 119.381L464.982 118.554ZM483.782 119.914V120.914H484.782V119.914H483.782ZM483.782 111.914H484.782V110.914H483.782V111.914ZM466.822 111.914H465.822V112.914H466.822V111.914ZM466.822 107.914V106.914H465.822V107.914H466.822ZM487.782 107.914H488.782V106.914H487.782V107.914ZM487.782 123.914V122.914H469.742V123.914V124.914H487.782V123.914ZM469.742 123.914V122.914C467.92 122.914 466.305 122.578 464.878 121.925L464.462 122.834L464.045 123.744C465.765 124.53 467.669 124.914 469.742 124.914V123.914ZM464.462 122.834L464.878 121.925C463.429 121.262 462.181 120.344 461.126 119.167L460.382 119.834L459.637 120.502C460.876 121.885 462.348 122.967 464.045 123.744L464.462 122.834ZM460.382 119.834L461.134 119.176C460.099 117.993 459.294 116.622 458.721 115.051L457.782 115.394L456.842 115.737C457.496 117.527 458.424 119.115 459.629 120.493L460.382 119.834ZM457.782 115.394L458.723 115.056C458.151 113.466 457.862 111.754 457.862 109.914H456.862H455.862C455.862 111.968 456.185 113.91 456.84 115.733L457.782 115.394ZM456.862 109.914H457.862C457.862 108.103 458.151 106.42 458.721 104.857L457.782 104.514L456.842 104.171C456.186 105.969 455.862 107.886 455.862 109.914H456.862ZM457.782 104.514L458.723 104.853C459.297 103.256 460.102 101.873 461.134 100.693L460.382 100.034L459.629 99.3758C458.421 100.756 457.493 102.36 456.84 104.176L457.782 104.514ZM460.382 100.034L461.133 100.694C462.187 99.4927 463.433 98.5647 464.878 97.9036L464.462 96.9943L464.045 96.085C462.343 96.8639 460.869 97.9626 459.63 99.3747L460.382 100.034ZM464.462 96.9943L464.878 97.9036C466.305 97.2504 467.92 96.9143 469.742 96.9143V95.9143V94.9143C467.669 94.9143 465.765 95.2982 464.045 96.085L464.462 96.9943ZM469.742 95.9143V96.9143H487.782V95.9143V94.9143H469.742V95.9143ZM487.782 95.9143H486.782V99.9143H487.782H488.782V95.9143H487.782ZM487.782 99.9143V98.9143H469.742V99.9143V100.914H487.782V99.9143ZM469.742 99.9143V98.9143C467.73 98.9143 465.941 99.4126 464.419 100.447L464.982 101.274L465.544 102.101C466.689 101.323 468.073 100.914 469.742 100.914V99.9143ZM464.982 101.274L464.423 100.445C462.957 101.432 461.829 102.775 461.038 104.446L461.942 104.874L462.845 105.302C463.494 103.933 464.393 102.877 465.54 102.104L464.982 101.274ZM461.942 104.874L461.038 104.446C460.249 106.112 459.862 107.94 459.862 109.914H460.862H461.862C461.862 108.208 462.194 106.676 462.845 105.302L461.942 104.874ZM460.862 109.914H459.862C459.862 111.888 460.249 113.716 461.038 115.382L461.942 114.954L462.845 114.526C462.194 113.152 461.862 111.62 461.862 109.914H460.862ZM461.942 114.954L461.041 115.389C461.832 117.031 462.957 118.367 464.411 119.376L464.982 118.554L465.552 117.733C464.393 116.929 463.491 115.865 462.842 114.52L461.942 114.954ZM464.982 118.554L464.419 119.381C465.941 120.416 467.73 120.914 469.742 120.914V119.914V118.914C468.073 118.914 466.689 118.506 465.544 117.727L464.982 118.554ZM469.742 119.914V120.914H483.782V119.914V118.914H469.742V119.914ZM483.782 119.914H484.782V111.914H483.782H482.782V119.914H483.782ZM483.782 111.914V110.914H466.822V111.914V112.914H483.782V111.914ZM466.822 111.914H467.822V107.914H466.822H465.822V111.914H466.822ZM466.822 107.914V108.914H487.782V107.914V106.914H466.822V107.914ZM487.782 107.914H486.782V123.914H487.782H488.782V107.914H487.782ZM525.815 115.394L526.754 115.737L526.756 115.733L525.815 115.394ZM523.175 119.834L522.43 119.167L522.422 119.176L523.175 119.834ZM519.095 122.834L518.685 121.922L518.679 121.925L519.095 122.834ZM499.735 123.914H498.735V124.914H499.735V123.914ZM499.735 119.914V118.914H498.735V119.914H499.735ZM518.615 118.554L519.177 119.381L519.177 119.381L518.615 118.554ZM521.655 114.954L520.751 114.526L520.748 114.533L521.655 114.954ZM521.655 104.874L520.745 105.289L520.748 105.296L520.751 105.302L521.655 104.874ZM518.615 101.274L518.053 102.101L518.064 102.109L518.615 101.274ZM497.735 99.9143V98.9143H496.735V99.9143H497.735ZM497.735 123.914V124.914H498.735V123.914H497.735ZM493.735 123.914H492.735V124.914H493.735V123.914ZM493.735 95.9143V94.9143H492.735V95.9143H493.735ZM519.095 96.9943L518.679 97.9036L518.685 97.9062L519.095 96.9943ZM523.175 100.034L522.416 100.685L522.423 100.693L522.43 100.702L523.175 100.034ZM525.815 104.514L524.874 104.853L524.876 104.857L525.815 104.514ZM526.735 109.914H525.735C525.735 111.754 525.445 113.466 524.874 115.056L525.815 115.394L526.756 115.733C527.411 113.91 527.735 111.968 527.735 109.914H526.735ZM525.815 115.394L524.876 115.051C524.304 116.617 523.489 117.986 522.43 119.167L523.175 119.834L523.92 120.502C525.155 119.123 526.099 117.532 526.754 115.737L525.815 115.394ZM523.175 119.834L522.422 119.176C521.4 120.344 520.158 121.259 518.685 121.922L519.095 122.834L519.505 123.746C521.232 122.969 522.71 121.884 523.928 120.493L523.175 119.834ZM519.095 122.834L518.679 121.925C517.25 122.579 515.647 122.914 513.855 122.914V123.914V124.914C515.903 124.914 517.794 124.53 519.511 123.744L519.095 122.834ZM513.855 123.914V122.914H499.735V123.914V124.914H513.855V123.914ZM499.735 123.914H500.735V119.914H499.735H498.735V123.914H499.735ZM499.735 119.914V120.914H513.855V119.914V118.914H499.735V119.914ZM513.855 119.914V120.914C515.866 120.914 517.656 120.416 519.177 119.381L518.615 118.554L518.053 117.727C516.908 118.506 515.524 118.914 513.855 118.914V119.914ZM518.615 118.554L519.177 119.381C520.663 118.371 521.794 117.029 522.562 115.375L521.655 114.954L520.748 114.533C520.129 115.866 519.233 116.925 518.053 117.727L518.615 118.554ZM521.655 114.954L522.559 115.382C523.348 113.716 523.735 111.888 523.735 109.914H522.735H521.735C521.735 111.62 521.402 113.152 520.751 114.526L521.655 114.954ZM522.735 109.914H523.735C523.735 107.94 523.348 106.112 522.559 104.446L521.655 104.874L520.751 105.302C521.402 106.676 521.735 108.208 521.735 109.914H522.735ZM521.655 104.874L522.565 104.459C521.797 102.777 520.663 101.428 519.166 100.44L518.615 101.274L518.064 102.109C519.233 102.881 520.126 103.932 520.745 105.289L521.655 104.874ZM518.615 101.274L519.177 100.447C517.656 99.4126 515.866 98.9143 513.855 98.9143V99.9143V100.914C515.524 100.914 516.908 101.323 518.053 102.101L518.615 101.274ZM513.855 99.9143V98.9143H497.735V99.9143V100.914H513.855V99.9143ZM497.735 99.9143H496.735V123.914H497.735H498.735V99.9143H497.735ZM497.735 123.914V122.914H493.735V123.914V124.914H497.735V123.914ZM493.735 123.914H494.735V95.9143H493.735H492.735V123.914H493.735ZM493.735 95.9143V96.9143H513.855V95.9143V94.9143H493.735V95.9143ZM513.855 95.9143V96.9143C515.647 96.9143 517.25 97.2496 518.679 97.9036L519.095 96.9943L519.511 96.085C517.794 95.299 515.903 94.9143 513.855 94.9143V95.9143ZM519.095 96.9943L518.685 97.9062C520.153 98.5671 521.393 99.4923 522.416 100.685L523.175 100.034L523.934 99.3835C522.717 97.963 521.237 96.8615 519.505 96.0824L519.095 96.9943ZM523.175 100.034L522.43 100.702C523.486 101.88 524.302 103.26 524.874 104.853L525.815 104.514L526.756 104.176C526.102 102.355 525.157 100.748 523.92 99.3671L523.175 100.034ZM525.815 104.514L524.876 104.857C525.446 106.42 525.735 108.103 525.735 109.914H526.735H527.735C527.735 107.886 527.411 105.969 526.754 104.171L525.815 104.514ZM564.38 115.394L565.319 115.737L565.321 115.733L564.38 115.394ZM561.74 119.834L560.995 119.167L560.987 119.176L561.74 119.834ZM533.78 119.834L533.027 120.493L533.035 120.502L533.78 119.834ZM531.18 115.394L530.239 115.733L530.241 115.737L531.18 115.394ZM531.18 104.514L532.119 104.857L532.121 104.853L531.18 104.514ZM533.78 100.034L533.028 99.3747L533.027 99.3758L533.78 100.034ZM561.74 100.034L560.981 100.685L560.988 100.693L560.995 100.702L561.74 100.034ZM564.38 104.514L563.439 104.853L563.441 104.857L564.38 104.514ZM560.22 104.874L559.31 105.289L559.313 105.296L559.316 105.302L560.22 104.874ZM557.18 101.274L556.61 102.096L556.619 102.103L556.629 102.109L557.18 101.274ZM538.38 101.274L538.939 102.104L538.942 102.101L538.38 101.274ZM535.34 104.874L536.244 105.302L536.244 105.302L535.34 104.874ZM535.34 114.954L534.436 115.382L534.439 115.389L535.34 114.954ZM538.38 118.554L537.81 119.376L537.818 119.381L538.38 118.554ZM557.18 118.554L556.618 117.727L556.61 117.733L557.18 118.554ZM560.22 114.954L559.316 114.526L559.313 114.533L560.22 114.954ZM565.3 109.914H564.3C564.3 111.754 564.01 113.466 563.439 115.056L564.38 115.394L565.321 115.733C565.976 113.91 566.3 111.968 566.3 109.914H565.3ZM564.38 115.394L563.441 115.051C562.869 116.617 562.054 117.986 560.995 119.167L561.74 119.834L562.485 120.502C563.72 119.123 564.664 117.532 565.319 115.737L564.38 115.394ZM561.74 119.834L560.987 119.176C559.962 120.347 558.731 121.263 557.284 121.925L557.7 122.834L558.116 123.744C559.816 122.966 561.278 121.881 562.493 120.493L561.74 119.834ZM557.7 122.834L557.284 121.925C555.855 122.579 554.252 122.914 552.46 122.914V123.914V124.914C554.508 124.914 556.399 124.53 558.116 123.744L557.7 122.834ZM552.46 123.914V122.914H543.14V123.914V124.914H552.46V123.914ZM543.14 123.914V122.914C541.319 122.914 539.703 122.578 538.276 121.925L537.86 122.834L537.444 123.744C539.163 124.53 541.068 124.914 543.14 124.914V123.914ZM537.86 122.834L538.276 121.925C536.827 121.262 535.579 120.344 534.525 119.167L533.78 119.834L533.035 120.502C534.274 121.885 535.746 122.967 537.444 123.744L537.86 122.834ZM533.78 119.834L534.533 119.176C533.498 117.993 532.693 116.622 532.119 115.051L531.18 115.394L530.241 115.737C530.894 117.527 531.822 119.115 533.027 120.493L533.78 119.834ZM531.18 115.394L532.121 115.056C531.55 113.466 531.26 111.754 531.26 109.914H530.26H529.26C529.26 111.968 529.584 113.91 530.239 115.733L531.18 115.394ZM530.26 109.914H531.26C531.26 108.103 531.549 106.42 532.119 104.857L531.18 104.514L530.241 104.171C529.584 105.969 529.26 107.886 529.26 109.914H530.26ZM531.18 104.514L532.121 104.853C532.695 103.256 533.5 101.873 534.533 100.693L533.78 100.034L533.027 99.3758C531.82 100.756 530.892 102.36 530.239 104.176L531.18 104.514ZM533.78 100.034L534.532 100.694C535.586 99.4927 536.832 98.5647 538.276 97.9036L537.86 96.9943L537.444 96.085C535.742 96.8639 534.268 97.9626 533.028 99.3747L533.78 100.034ZM537.86 96.9943L538.276 97.9036C539.703 97.2504 541.319 96.9143 543.14 96.9143V95.9143V94.9143C541.068 94.9143 539.163 95.2982 537.444 96.085L537.86 96.9943ZM543.14 95.9143V96.9143H552.46V95.9143V94.9143H543.14V95.9143ZM552.46 95.9143V96.9143C554.252 96.9143 555.855 97.2496 557.284 97.9036L557.7 96.9943L558.116 96.085C556.399 95.299 554.508 94.9143 552.46 94.9143V95.9143ZM557.7 96.9943L557.284 97.9036C558.726 98.5637 559.956 99.4891 560.981 100.685L561.74 100.034L562.499 99.3835C561.284 97.9662 559.82 96.865 558.116 96.085L557.7 96.9943ZM561.74 100.034L560.995 100.702C562.051 101.88 562.867 103.26 563.439 104.853L564.38 104.514L565.321 104.176C564.667 102.355 563.722 100.748 562.485 99.3671L561.74 100.034ZM564.38 104.514L563.441 104.857C564.011 106.42 564.3 108.103 564.3 109.914H565.3H566.3C566.3 107.886 565.976 105.969 565.319 104.171L564.38 104.514ZM561.3 109.914H562.3C562.3 107.94 561.913 106.112 561.124 104.446L560.22 104.874L559.316 105.302C559.967 106.676 560.3 108.208 560.3 109.914H561.3ZM560.22 104.874L561.13 104.459C560.362 102.777 559.228 101.428 557.731 100.44L557.18 101.274L556.629 102.109C557.798 102.881 558.691 103.932 559.31 105.289L560.22 104.874ZM557.18 101.274L557.75 100.453C556.251 99.4124 554.471 98.9143 552.46 98.9143V99.9143V100.914C554.129 100.914 555.496 101.323 556.61 102.096L557.18 101.274ZM552.46 99.9143V98.9143H543.14V99.9143V100.914H552.46V99.9143ZM543.14 99.9143V98.9143C541.129 98.9143 539.339 99.4126 537.818 100.447L538.38 101.274L538.942 102.101C540.087 101.323 541.471 100.914 543.14 100.914V99.9143ZM538.38 101.274L537.821 100.445C536.356 101.432 535.228 102.775 534.436 104.446L535.34 104.874L536.244 105.302C536.892 103.933 537.791 102.877 538.939 102.104L538.38 101.274ZM535.34 104.874L534.436 104.446C533.647 106.112 533.26 107.94 533.26 109.914H534.26H535.26C535.26 108.208 535.593 106.676 536.244 105.302L535.34 104.874ZM534.26 109.914H533.26C533.26 111.888 533.647 113.716 534.436 115.382L535.34 114.954L536.244 114.526C535.593 113.152 535.26 111.62 535.26 109.914H534.26ZM535.34 114.954L534.439 115.389C535.231 117.031 536.355 118.367 537.81 119.376L538.38 118.554L538.95 117.733C537.791 116.929 536.889 115.865 536.241 114.52L535.34 114.954ZM538.38 118.554L537.818 119.381C539.339 120.416 541.129 120.914 543.14 120.914V119.914V118.914C541.471 118.914 540.087 118.506 538.942 117.727L538.38 118.554ZM543.14 119.914V120.914H552.46V119.914V118.914H543.14V119.914ZM552.46 119.914V120.914C554.471 120.914 556.251 120.416 557.75 119.376L557.18 118.554L556.61 117.733C555.496 118.506 554.129 118.914 552.46 118.914V119.914ZM557.18 118.554L557.742 119.381C559.228 118.371 560.359 117.029 561.127 115.375L560.22 114.954L559.313 114.533C558.694 115.866 557.798 116.925 556.618 117.727L557.18 118.554ZM560.22 114.954L561.124 115.382C561.913 113.716 562.3 111.888 562.3 109.914H561.3H560.3C560.3 111.62 559.967 113.152 559.316 114.526L560.22 114.954ZM590.575 123.914V124.914H591.575V123.914H590.575ZM586.575 123.914H585.575V124.914H586.575V123.914ZM585.215 104.874L584.349 105.375L584.356 105.387L585.215 104.874ZM581.615 101.274L581.102 102.133L581.114 102.14L581.615 101.274ZM574.415 99.9143V98.9143H573.415V99.9143H574.415ZM574.415 123.914V124.914H575.415V123.914H574.415ZM570.415 123.914H569.415V124.914H570.415V123.914ZM570.415 95.9143V94.9143H569.415V95.9143H570.415ZM583.535 97.7943L583.023 98.6537L583.028 98.6565L583.535 97.7943ZM588.575 102.714L587.719 103.232L588.575 104.646L589.43 103.232L588.575 102.714ZM593.575 97.7943L593.068 96.9321L593.063 96.9349L593.575 97.7943ZM606.735 95.9143H607.735V94.9143H606.735V95.9143ZM606.735 123.914V124.914H607.735V123.914H606.735ZM602.735 123.914H601.735V124.914H602.735V123.914ZM602.735 99.9143H603.735V98.9143H602.735V99.9143ZM595.535 101.274L596.042 102.136L596.047 102.133L595.535 101.274ZM591.935 104.874L592.794 105.387L592.794 105.387L591.935 104.874ZM590.575 123.914V122.914H586.575V123.914V124.914H590.575V123.914ZM586.575 123.914H587.575V109.914H586.575H585.575V123.914H586.575ZM586.575 109.914H587.575C587.575 107.901 587.076 106.043 586.074 104.362L585.215 104.874L584.356 105.387C585.166 106.745 585.575 108.247 585.575 109.914H586.575ZM585.215 104.874L586.08 104.373C585.113 102.702 583.787 101.376 582.116 100.409L581.615 101.274L581.114 102.14C582.482 102.932 583.557 104.007 584.349 105.375L585.215 104.874ZM581.615 101.274L582.127 100.415C580.446 99.4127 578.588 98.9143 576.575 98.9143V99.9143V100.914C578.242 100.914 579.744 101.323 581.102 102.133L581.615 101.274ZM576.575 99.9143V98.9143H574.415V99.9143V100.914H576.575V99.9143ZM574.415 99.9143H573.415V123.914H574.415H575.415V99.9143H574.415ZM574.415 123.914V122.914H570.415V123.914V124.914H574.415V123.914ZM570.415 123.914H571.415V95.9143H570.415H569.415V123.914H570.415ZM570.415 95.9143V96.9143H576.575V95.9143V94.9143H570.415V95.9143ZM576.575 95.9143V96.9143C578.934 96.9143 581.077 97.4956 583.023 98.6537L583.535 97.7943L584.046 96.9349C581.779 95.5864 579.282 94.9143 576.575 94.9143V95.9143ZM583.535 97.7943L583.028 98.6565C585.025 99.8297 586.582 101.354 587.719 103.232L588.575 102.714L589.43 102.197C588.114 100.021 586.311 98.2656 584.041 96.9321L583.535 97.7943ZM588.575 102.714L589.43 103.232C590.569 101.351 592.115 99.8262 594.086 98.6537L593.575 97.7943L593.063 96.9349C590.821 98.2691 589.034 100.024 587.719 102.197L588.575 102.714ZM593.575 97.7943L594.081 98.6565C596.057 97.4956 598.215 96.9143 600.575 96.9143V95.9143V94.9143C597.868 94.9143 595.359 95.5863 593.068 96.9321L593.575 97.7943ZM600.575 95.9143V96.9143H606.735V95.9143V94.9143H600.575V95.9143ZM606.735 95.9143H605.735V123.914H606.735H607.735V95.9143H606.735ZM606.735 123.914V122.914H602.735V123.914V124.914H606.735V123.914ZM602.735 123.914H603.735V99.9143H602.735H601.735V123.914H602.735ZM602.735 99.9143V98.9143H600.575V99.9143V100.914H602.735V99.9143ZM600.575 99.9143V98.9143C598.562 98.9143 596.704 99.4127 595.022 100.415L595.535 101.274L596.047 102.133C597.406 101.323 598.908 100.914 600.575 100.914V99.9143ZM595.535 101.274L595.027 100.413C593.386 101.38 592.067 102.701 591.076 104.362L591.935 104.874L592.794 105.387C593.616 104.007 594.697 102.929 596.042 102.136L595.535 101.274ZM591.935 104.874L591.076 104.362C590.073 106.043 589.575 107.901 589.575 109.914H590.575H591.575C591.575 108.247 591.983 106.745 592.794 105.387L591.935 104.874ZM590.575 109.914H589.575V123.914H590.575H591.575V109.914H590.575Z" fill="#3CFFD0" mask="url(#path-3-outside-2_20_69)"/>
<path fill-rule="evenodd" clip-rule="evenodd" d="M1.46966 65.6344C2.45735 81.0959 9.23395 95.6003 20.4201 106.286C15.1172 126.265 10.4803 142.175 7.17843 146.042C-3.23695 158.239 0.447989 49.641 1.46966 65.6344Z" fill="url(#paint0_linear_20_69)"/>
<path d="M125 61.7081C125 77.7339 118.753 93.1312 107.581 104.642C96.4095 116.153 81.1891 122.875 65.1402 123.385C49.0914 123.895 33.4732 118.153 21.5901 107.375C21.1949 107.017 20.8049 106.654 20.4201 106.286C21.8981 100.718 23.4277 94.8338 24.9948 88.8059C35.5399 48.2429 47.7721 1.1901 57.2763 0.281384C73.2601 -1.24686 89.2127 3.49108 101.759 13.4928C114.305 23.4944 122.46 37.9752 124.499 53.8713L125 61.7081Z" fill="url(#paint1_linear_20_69)"/>
<defs>
<linearGradient id="paint0_linear_20_69" x1="62.5" y1="0" x2="62.5" y2="147" gradientUnits="userSpaceOnUse">
<stop stop-color="#133930"/>
<stop offset="0.3125" stop-color="#3CFFD0"/>
</linearGradient>
<linearGradient id="paint1_linear_20_69" x1="62.5" y1="0" x2="62.5" y2="147" gradientUnits="userSpaceOnUse">
<stop stop-color="#133930"/>
<stop offset="0.3125" stop-color="#3CFFD0"/>
</linearGradient>
</defs>
</svg>
